<svg xmlns="http://www.w3.org/2000/svg" width="180.282" height="180.282" viewBox="0 0 180.282 180.282">
  <g id="analysis" transform="translate(-1 -1)">
    <g id="Group_1374" data-name="Group 1374" transform="translate(70.787 35.893)">
      <path id="Path_11423" data-name="Path 11423" d="M41.647,53.608a6.217,6.217,0,0,0-4.731-7.284V59.557a7.851,7.851,0,0,0,4.731-5.949Z" transform="translate(-2.267 50.575)" fill="#e7edfa"/>
      <path id="Path_11424" data-name="Path 11424" d="M57.647,53.608a6.217,6.217,0,0,0-4.731-7.284V59.557a7.851,7.851,0,0,0,4.731-5.949Z" transform="translate(28.258 50.575)" fill="#e7edfa"/>
      <path id="Path_11425" data-name="Path 11425" d="M49.94,44.106a4.269,4.269,0,0,0,1.137,4.146,15.886,15.886,0,0,0,1.974,1.279V40.038a5.629,5.629,0,0,0-3.111,4.068Z" transform="translate(22.306 38.582)" fill="#e7edfa"/>
      <path id="Path_11426" data-name="Path 11426" d="M126.772,13H33.723A8.723,8.723,0,0,0,25,21.723V149.666a8.723,8.723,0,0,0,8.723,8.723h93.049a8.723,8.723,0,0,0,8.723-8.723V21.723A8.723,8.723,0,0,0,126.772,13ZM68.617,146.758H45.354a2.908,2.908,0,0,1,0-5.816H68.617a2.908,2.908,0,0,1,0,5.816ZM48.262,104.412A9.95,9.95,0,0,1,45,94.61a11.233,11.233,0,0,1,8.825-9.122v-2.7a2.908,2.908,0,0,1,5.816,0v2.475A14.248,14.248,0,0,1,66.6,88.407,2.908,2.908,0,0,1,62.685,92.7a8.3,8.3,0,0,0-3.036-1.483V103.7c.765.291,1.535.582,2.286.837a11.893,11.893,0,0,1,8.182,13.608A13.53,13.53,0,0,1,59.649,129.2v3.021a2.908,2.908,0,0,1-5.816,0v-2.78a16.536,16.536,0,0,1-8.845-3.14,2.911,2.911,0,0,1,3.2-4.865,10.852,10.852,0,0,0,5.661,2.181V107.6A26.361,26.361,0,0,1,48.262,104.412ZM68.617,74.063H45.354a2.908,2.908,0,0,1,0-5.816H68.617a2.908,2.908,0,0,1,0,5.816ZM63.653,48.745a2.908,2.908,0,1,1,4.112,4.112L59.041,61.58a2.908,2.908,0,0,1-4.112,0l-8.723-8.723a2.908,2.908,0,1,1,4.112-4.112l3.759,3.76V39.17a2.908,2.908,0,0,1,5.816,0V52.505Zm51.488,98.012H91.879a2.908,2.908,0,0,1,0-5.816h23.262a2.908,2.908,0,1,1,0,5.816ZM94.787,104.412a9.95,9.95,0,0,1-3.263-9.8,11.241,11.241,0,0,1,8.825-9.122v-2.7a2.908,2.908,0,0,1,5.816,0v2.475a14.222,14.222,0,0,1,6.958,3.146,2.908,2.908,0,0,1-3.914,4.295,8.357,8.357,0,0,0-3.036-1.483V103.7c.765.291,1.535.582,2.286.837a11.893,11.893,0,0,1,8.182,13.608,13.53,13.53,0,0,1-10.468,11.05v3.021a2.908,2.908,0,0,1-5.816,0v-2.78a16.537,16.537,0,0,1-8.845-3.14,2.908,2.908,0,1,1,3.184-4.865,10.82,10.82,0,0,0,5.661,2.178V107.6a26.362,26.362,0,0,1-5.571-3.193Zm20.354-30.348H91.879a2.908,2.908,0,0,1,0-5.816h23.262a2.908,2.908,0,1,1,0,5.816Zm-18.3-24.114a2.908,2.908,0,1,1-4.112-4.112l8.724-8.723a2.908,2.908,0,0,1,4.112,0l8.723,8.723a2.908,2.908,0,1,1-4.112,4.112l-3.759-3.76V59.524a2.908,2.908,0,0,1-5.816,0V46.189Zm24.114-19.5H39.539a2.908,2.908,0,0,1,0-5.816h81.418a2.908,2.908,0,0,1,0,5.816Z" transform="translate(-25 -13)" fill="#e7edfa"/>
      <path id="Path_11427" data-name="Path 11427" d="M33.94,44.106a4.269,4.269,0,0,0,1.137,4.146,15.884,15.884,0,0,0,1.974,1.279V40.038a5.629,5.629,0,0,0-3.111,4.068Z" transform="translate(-8.218 38.582)" fill="#e7edfa"/>
    </g>
    <path id="Path_11428" data-name="Path 11428" d="M123.127,1H18.447A17.464,17.464,0,0,0,1,18.447V137.666a8.723,8.723,0,0,0,8.723,8.723h98.864a8.723,8.723,0,0,0,8.723-8.723V30.078H131.85a8.723,8.723,0,0,0,8.723-8.723V18.447A17.464,17.464,0,0,0,123.127,1ZM111.5,137.666a2.908,2.908,0,0,1-2.908,2.908H9.723a2.908,2.908,0,0,1-2.908-2.908V18.447a11.631,11.631,0,0,1,23.262,0v2.908A8.723,8.723,0,0,0,38.8,30.078H111.5ZM134.758,21.354a2.908,2.908,0,0,1-2.908,2.908H38.8a2.908,2.908,0,0,1-2.908-2.908V18.447A17.383,17.383,0,0,0,31.439,6.816h91.688a11.631,11.631,0,0,1,11.631,11.631Z" fill="#b0cae8"/>
    <path id="Path_11429" data-name="Path 11429" d="M8,16.908V48.893A2.908,2.908,0,0,0,10.908,51.8h26.17a2.908,2.908,0,0,0,2.908-2.908V16.908A2.908,2.908,0,0,0,37.078,14H10.908A2.908,2.908,0,0,0,8,16.908Zm5.816,2.908H34.17v26.17H13.816Z" transform="translate(13.354 24.801)" fill="#b0cae8"/>
    <path id="Path_11430" data-name="Path 11430" d="M24.908,22.816H53.986a2.908,2.908,0,0,0,0-5.816H24.908a2.908,2.908,0,0,0,0,5.816Z" transform="translate(40.063 30.524)" fill="#b0cae8"/>
    <path id="Path_11431" data-name="Path 11431" d="M24.908,27.816H53.986a2.908,2.908,0,0,0,0-5.816H24.908a2.908,2.908,0,0,0,0,5.816Z" transform="translate(40.063 40.063)" fill="#b0cae8"/>
    <path id="Path_11432" data-name="Path 11432" d="M37.93,42.483,13.816,66.6V32.908a2.908,2.908,0,1,0-5.816,0V73.617a2.908,2.908,0,0,0,2.908,2.908H80.694a2.908,2.908,0,1,0,0-5.816H17.927L39.986,48.65,52.469,61.134a2.908,2.908,0,0,0,4.112,0l26.17-26.17a2.908,2.908,0,1,0-4.112-4.112L54.524,54.966,42.041,42.483a2.908,2.908,0,0,0-4.112,0Z" transform="translate(13.354 55.326)" fill="#b0cae8"/>
  </g>
</svg>
