<svg xmlns="http://www.w3.org/2000/svg" width="173" height="172.969" viewBox="0 0 173 172.969">
  <g id="Group_1278" data-name="Group 1278" transform="translate(-8.02 -8.108)" opacity="0.33">
    <g id="Group_1254" data-name="Group 1254" transform="translate(41.498 102.945)">
      <path id="Path_11392" data-name="Path 11392" d="M235.15,280H112.371A8.371,8.371,0,0,0,104,288.371v61.39a8.371,8.371,0,0,0,8.371,8.371H235.15a8.371,8.371,0,0,0,8.371-8.371v-61.39A8.371,8.371,0,0,0,235.15,280Zm-2.79,47.437a2.791,2.791,0,0,1-2.79,2.79,13.969,13.969,0,0,0-13.952,13.952,2.791,2.791,0,0,1-2.79,2.79H134.695a2.791,2.791,0,0,1-2.79-2.79,13.969,13.969,0,0,0-13.952-13.952,2.791,2.791,0,0,1-2.79-2.79V310.695a2.791,2.791,0,0,1,2.79-2.79A13.969,13.969,0,0,0,131.9,293.952a2.791,2.791,0,0,1,2.79-2.79h78.132a2.791,2.791,0,0,1,2.79,2.79A13.969,13.969,0,0,0,229.57,307.9a2.791,2.791,0,0,1,2.79,2.79Z" transform="translate(-104 -280)" fill="#b9cdf4"/>
      <path id="Path_11393" data-name="Path 11393" d="M241.492,328H168.545A19.577,19.577,0,0,1,152,344.544V356.1a19.577,19.577,0,0,1,16.545,16.544h72.948A19.577,19.577,0,0,1,258.037,356.1V344.544A19.577,19.577,0,0,1,241.492,328Zm-36.474,39.066c-7.649,0-13.871-7.512-13.871-16.743s6.223-16.743,13.871-16.743,13.871,7.512,13.871,16.743S212.667,367.066,205.018,367.066Z" transform="translate(-135.257 -311.257)" fill="#acc6f9"/>
      <ellipse id="Ellipse_291" data-name="Ellipse 291" cx="9.088" cy="11.96" rx="9.088" ry="11.96" transform="translate(60.672 27.106)" fill="#acc6f9"/>
    </g>
    <path id="Path_11394" data-name="Path 11394" d="M118.765,121.337a42.931,42.931,0,0,0,2.26-14.184c0-23.7-14.893-51.414-35.118-62.922a19.4,19.4,0,0,0-4.774-10.1l6.583-14.061a8.419,8.419,0,0,0-13.57-9.515,10.676,10.676,0,0,1-15.085,0,8.419,8.419,0,0,0-13.55,9.515L52.1,34.119a19.853,19.853,0,0,0-1.253,1.554,64.158,64.158,0,0,0-16.826-9.66,2.8,2.8,0,0,0-2.012,5.218h0a58.581,58.581,0,0,1,10.174,5.1,47.8,47.8,0,0,0-23.328,6.839,2.79,2.79,0,1,0,2.689,4.89q.1-.055.2-.119a42.232,42.232,0,0,1,26-5.826,19.466,19.466,0,0,0-.43,2.118C27.091,55.74,12.2,83.457,12.2,107.153a42.932,42.932,0,0,0,2.26,14.184A12.537,12.537,0,1,0,30.4,140.058c8.963,5.023,21.126,7.559,36.211,7.559s27.249-2.537,36.211-7.559a12.537,12.537,0,1,0,15.942-18.718ZM66.612,33.207a14.016,14.016,0,0,1,12.557,7.886,35.341,35.341,0,0,0-25.114,0A14.016,14.016,0,0,1,66.612,33.207ZM55.124,14.489a16.263,16.263,0,0,0,22.976,0,2.838,2.838,0,0,1,4.565,3.2l-5.977,12.78a19.3,19.3,0,0,0-20.141,0L50.564,17.7a2.835,2.835,0,0,1,4.56-3.209Zm57.53,124.755a6.976,6.976,0,0,1-6.362-4.149,2.79,2.79,0,0,0-4.08-1.194c-8.218,5.4-20.194,8.134-35.6,8.134S39.23,139.3,31.012,133.9a2.791,2.791,0,0,0-4.08,1.194,6.976,6.976,0,1,1-8.156-9.532,2.79,2.79,0,0,0,1.833-3.817,36.077,36.077,0,0,1-2.83-14.591c0-33.814,26.85-62.785,48.833-62.785s48.833,28.97,48.833,62.785a36.076,36.076,0,0,1-2.83,14.591,2.791,2.791,0,0,0,1.833,3.817,6.957,6.957,0,0,1-1.794,13.673Z" transform="translate(0)" fill="#1565c0"/>
    <path id="Path_11395" data-name="Path 11395" d="M155.213,194.5c-.876-.31-1.772-.639-2.668-.977V179.463a9.208,9.208,0,0,1,3.806,1.78,2.79,2.79,0,0,0,3.762-4.121,15.031,15.031,0,0,0-7.568-3.329v-2.938a2.79,2.79,0,0,0-5.581,0V174c-.463.1-.932.212-1.415.357a11.765,11.765,0,0,0-8.056,9.234,10.325,10.325,0,0,0,3.382,10.191,28.234,28.234,0,0,0,6.089,3.474V215a12.112,12.112,0,0,1-6.583-2.425,2.79,2.79,0,0,0-3.053,4.671,17.455,17.455,0,0,0,9.635,3.332v3.293a2.79,2.79,0,1,0,5.581,0V220.36a14.167,14.167,0,0,0,11.232-11.636,12.434,12.434,0,0,0-8.564-14.228Zm-10.883-5.1a4.833,4.833,0,0,1-1.342-4.766,6.279,6.279,0,0,1,3.988-4.825V191.06a18.066,18.066,0,0,1-2.656-1.666Zm13.952,18.4a8.69,8.69,0,0,1-5.729,6.77v-15.1l.809.293a6.94,6.94,0,0,1,4.911,8.042Z" transform="translate(-83.405 -104.162)" fill="#1565c0"/>
  </g>
</svg>
