<svg xmlns="http://www.w3.org/2000/svg" width="21.876" height="19" viewBox="0 0 21.876 19">
  <g id="report-01" transform="translate(-26.78 -22.85)">
    <g id="Group_987" data-name="Group 987" transform="translate(31.462 28.007)">
      <path id="Path_11300" data-name="Path 11300" d="M107.943,118.981h-1.185a.4.4,0,0,1-.4-.4V117.4a.4.4,0,0,1,.4-.4h1.185a.4.4,0,0,1,.4.4v1.185A.4.4,0,0,1,107.943,118.981Zm-1.185-1.648a.065.065,0,0,0-.065.065v1.185a.065.065,0,0,0,.065.065h1.185a.065.065,0,0,0,.065-.065V117.4a.065.065,0,0,0-.065-.065Z" transform="translate(-106.36 -117)" fill="#fff"/>
    </g>
    <g id="Group_988" data-name="Group 988" transform="translate(35.072 28.179)">
      <path id="Path_11301" data-name="Path 11301" d="M171.023,120.363h-4.617a.166.166,0,1,1,0-.333h4.617a.166.166,0,1,1,0,.333Z" transform="translate(-166.24 -120.03)" fill="#fff"/>
    </g>
    <g id="Group_989" data-name="Group 989" transform="translate(35.072 29.316)">
      <path id="Path_11302" data-name="Path 11302" d="M171.023,141.083h-4.617a.166.166,0,0,1,0-.333h4.617a.166.166,0,0,1,0,.333Z" transform="translate(-166.24 -140.75)" fill="#fff"/>
    </g>
    <g id="Group_990" data-name="Group 990" transform="translate(35.072 30.399)">
      <path id="Path_11303" data-name="Path 11303" d="M171.023,160.843h-4.617a.166.166,0,1,1,0-.333h4.617a.166.166,0,1,1,0,.333Z" transform="translate(-166.24 -160.51)" fill="#fff"/>
    </g>
    <path id="Path_11304" data-name="Path 11304" d="M107.653,207.914h-.367v-1.631a.166.166,0,0,0-.333,0v1.631h-.983V204.9a.166.166,0,0,0-.333,0v3.019h-.93v-3.567a.166.166,0,1,0-.333,0v3.567h-.9v-2.278a.166.166,0,1,0-.333,0v2.278h-.817v-3.848a.166.166,0,1,0-.333,0v3.848h-.763v-2.278a.166.166,0,1,0-.333,0v2.278h-.7a.166.166,0,1,0,0,.333h7.456a.166.166,0,0,0,0-.333Z" transform="translate(-68.831 -171.152)" fill="#fff"/>
    <path id="Path_11305" data-name="Path 11305" d="M48.654,24.1c0-.809-.468-1.244-1.336-1.244H37.044c-1.068,0-2.136,0-3.2,0-.175,0-.3.039-.3.227q0,1.031,0,2.062c0,.121.05.222.191.221s.19-.11.189-.239c0-.561,0-1.121,0-1.682v-.223h12.7a1.466,1.466,0,0,0-.311,1.135q0,5.067,0,10.133,0,1.392,0,2.784a.881.881,0,0,1-.539.845.978.978,0,0,1-1.428-.88q0-5.1,0-10.193a1.276,1.276,0,0,0-1.409-1.332q-6,0-12,0a2.027,2.027,0,0,0-1.237.366,1.78,1.78,0,0,0-.742,1.542q.008,5.627,0,11.254v.268H26.78v1.541a1.58,1.58,0,0,0,1.768,1.172c4.087-.022,8.174-.009,12.26-.009a1.149,1.149,0,0,0,1.27-1.186c0-.607,0-1.215,0-1.822v-.227h.263c.947,0,1.894,0,2.841,0a2.021,2.021,0,0,0,.465-.041,1.282,1.282,0,0,0,1.037-1.34q0-5.718,0-11.435v-.248c.58,0,1.134,0,1.687,0,.2,0,.284-.074.281-.262C48.649,24.883,48.654,24.489,48.654,24.1ZM39.7,41.485q-5.554,0-11.107,0a2.914,2.914,0,0,1-.676-.052.953.953,0,0,1-.749-.9c-.012-.34,0-.68,0-1.034H39.5c.058.68-.167,1.4.483,1.981Zm2.011-14.3q0,6.667,0,13.334a1.473,1.473,0,0,1-.038.416.853.853,0,0,1-1.352.343.935.935,0,0,1-.422-.753c-.009-.36,0-.721-.005-1.081,0-.271-.043-.312-.336-.312H32.677c-.819,0-1.638,0-2.457,0h-.75c-.12-.011-.163-.063-.162-.208q.012-5.676.015-11.352a1.459,1.459,0,0,1,1.628-1.519H42.115A1.413,1.413,0,0,0,41.707,27.186Zm.373,11.055V38.05q0-5.505,0-11.011a.9.9,0,0,1,.687-.947.93.93,0,0,1,1.182.719,2.43,2.43,0,0,1,.02.339q0,4.985,0,9.97a1.444,1.444,0,0,0,.418,1.121Zm6.194-13.076H46.7c0-.432-.023-.86.006-1.283a.8.8,0,0,1,1.567.046C48.285,24.335,48.274,24.742,48.274,25.166Z" transform="translate(0 0)" fill="#fff"/>
  </g>
</svg>
