<svg id="result" xmlns="http://www.w3.org/2000/svg" width="24" height="24" viewBox="0 0 24 24">
  <g id="Group_992" data-name="Group 992">
    <g id="Group_991" data-name="Group 991">
      <path id="Path_11306" data-name="Path 11306" d="M23.863,4.4,19.6.137A.469.469,0,0,0,19.266,0H5.344A1.408,1.408,0,0,0,3.938,1.406V2.3A6.2,6.2,0,0,0,0,8.067a.469.469,0,0,0,.469.469H6.192a.469.469,0,0,0,.469-.469V2.344a.469.469,0,0,0-.469-.469,6.189,6.189,0,0,0-1.317.141v-.61A.469.469,0,0,1,5.344.938H18.8V3.8A1.408,1.408,0,0,0,20.2,5.2h2.859V22.594a.469.469,0,0,1-.469.469H5.344a.469.469,0,0,1-.469-.469V18.578a.469.469,0,1,0-.937,0v4.016A1.408,1.408,0,0,0,5.344,24h17.25A1.408,1.408,0,0,0,24,22.594V4.734A.469.469,0,0,0,23.863,4.4ZM5.723,2.833V7.6H.958A5.263,5.263,0,0,1,5.723,2.833ZM20.2,4.266a.469.469,0,0,1-.469-.469V1.6L22.4,4.266Z" fill="#818181"/>
    </g>
  </g>
  <g id="Group_994" data-name="Group 994" transform="translate(3.938 16.406)">
    <g id="Group_993" data-name="Group 993">
      <path id="Path_11307" data-name="Path 11307" d="M84.8,350.137a.468.468,0,1,0,.137.331A.472.472,0,0,0,84.8,350.137Z" transform="translate(-84 -350)" fill="#818181"/>
    </g>
  </g>
  <g id="Group_996" data-name="Group 996" transform="translate(1.679 3.554)">
    <g id="Group_995" data-name="Group 995">
      <path id="Path_11308" data-name="Path 11308" d="M42.011,75.819a.469.469,0,0,0-.469.469v5.254H36.288a.469.469,0,0,0-.469.469,6.192,6.192,0,1,0,6.192-6.192Zm.469.958a5.23,5.23,0,0,1,2.9,1.2l-2.9,2.9Zm-.469,10.488a5.261,5.261,0,0,1-5.233-4.786h5.233a.467.467,0,0,0,.331-.137h0l3.7-3.7a5.252,5.252,0,0,1-4.03,8.622Z" transform="translate(-35.819 -75.819)" fill="#818181"/>
    </g>
  </g>
  <g id="Group_998" data-name="Group 998" transform="translate(7.214 14.794)">
    <g id="Group_997" data-name="Group 997">
      <path id="Path_11309" data-name="Path 11309" d="M167.225,315.6a1.406,1.406,0,0,0-1.3,1.954l-2.7,2.7a1.4,1.4,0,0,0-1.214-.006l-1.793-1.793a1.406,1.406,0,1,0-2.586.077l-1.72,1.72a1.406,1.406,0,1,0,.664.662l1.71-1.71a1.4,1.4,0,0,0,1.317-.038l1.743,1.743a1.406,1.406,0,1,0,2.539.013l2.675-2.675a1.406,1.406,0,1,0,.662-2.647ZM155.311,322a.469.469,0,1,1,.324-.806l.005.006.007.006a.468.468,0,0,1-.337.794Zm3.6-3.578a.469.469,0,1,1,.469-.469A.469.469,0,0,1,158.913,318.417Zm3.7,3.576a.469.469,0,1,1,.469-.469A.469.469,0,0,1,162.616,321.994Zm4.609-4.514a.469.469,0,1,1,.469-.469A.469.469,0,0,1,167.225,317.48Z" transform="translate(-153.905 -315.605)" fill="#818181"/>
    </g>
  </g>
  <g id="Group_1000" data-name="Group 1000" transform="translate(15.249 11.016)">
    <g id="Group_999" data-name="Group 999">
      <path id="Path_11310" data-name="Path 11310" d="M328.254,235H325.78a.469.469,0,1,0,0,.938h2.474a.469.469,0,1,0,0-.937Z" transform="translate(-325.311 -235)" fill="#818181"/>
    </g>
  </g>
  <g id="Group_1002" data-name="Group 1002" transform="translate(19.857 11.016)">
    <g id="Group_1001" data-name="Group 1001">
      <path id="Path_11311" data-name="Path 11311" d="M424.42,235.137a.468.468,0,1,0,.137.331A.472.472,0,0,0,424.42,235.137Z" transform="translate(-423.62 -235)" fill="#818181"/>
    </g>
  </g>
  <g id="Group_1004" data-name="Group 1004" transform="translate(15.249 6.516)">
    <g id="Group_1003" data-name="Group 1003">
      <path id="Path_11312" data-name="Path 11312" d="M331.506,139H325.78a.469.469,0,0,0,0,.938h5.726a.469.469,0,0,0,0-.937Z" transform="translate(-325.311 -139)" fill="#818181"/>
    </g>
  </g>
  <g id="Group_1006" data-name="Group 1006" transform="translate(15.249 8.766)">
    <g id="Group_1005" data-name="Group 1005">
      <path id="Path_11313" data-name="Path 11313" d="M331.506,187H325.78a.469.469,0,1,0,0,.938h5.726a.469.469,0,0,0,0-.937Z" transform="translate(-325.311 -187)" fill="#818181"/>
    </g>
  </g>
</svg>
