<svg xmlns="http://www.w3.org/2000/svg" width="28.134" height="24.5" viewBox="0 0 28.134 24.5">
  <g id="report-01" transform="translate(-26.53 -22.6)">
    <g id="Group_987" data-name="Group 987" transform="translate(32.694 29.365)">
      <path id="Path_11300" data-name="Path 11300" d="M108.359,119.5h-1.5a.5.5,0,0,1-.5-.5v-1.5a.5.5,0,0,1,.5-.5h1.5a.5.5,0,0,1,.5.5V119A.5.5,0,0,1,108.359,119.5Zm-1.5-2.081a.082.082,0,0,0-.082.082V119a.082.082,0,0,0,.082.082h1.5a.082.082,0,0,0,.082-.082v-1.5a.082.082,0,0,0-.082-.082Z" transform="translate(-106.36 -117)" fill="#707070" stroke="#707070" stroke-width="0.5"/>
    </g>
    <g id="Group_988" data-name="Group 988" transform="translate(37.254 29.582)">
      <path id="Path_11301" data-name="Path 11301" d="M172.282,120.45H166.45a.21.21,0,1,1,0-.42h5.832a.21.21,0,1,1,0,.42Z" transform="translate(-166.24 -120.03)" fill="#707070" stroke="#707070" stroke-width="0.5"/>
    </g>
    <g id="Group_989" data-name="Group 989" transform="translate(37.254 31.017)">
      <path id="Path_11302" data-name="Path 11302" d="M172.282,141.17H166.45a.21.21,0,1,1,0-.42h5.832a.21.21,0,1,1,0,.42Z" transform="translate(-166.24 -140.75)" fill="#707070" stroke="#707070" stroke-width="0.5"/>
    </g>
    <g id="Group_990" data-name="Group 990" transform="translate(37.254 32.386)">
      <path id="Path_11303" data-name="Path 11303" d="M172.282,160.93H166.45a.21.21,0,1,1,0-.42h5.832a.21.21,0,1,1,0,.42Z" transform="translate(-166.24 -160.51)" fill="#707070" stroke="#707070" stroke-width="0.5"/>
    </g>
    <path id="Path_11304" data-name="Path 11304" d="M109.66,208.971H109.2v-2.06a.21.21,0,0,0-.42,0v2.06h-1.242v-3.814a.21.21,0,0,0-.42,0v3.814h-1.175v-4.506a.21.21,0,1,0-.42,0v4.506H104.38v-2.877a.21.21,0,1,0-.42,0v2.877h-1.032V204.11a.21.21,0,0,0-.42,0v4.861h-.964v-2.877a.21.21,0,1,0-.42,0v2.877h-.882a.21.21,0,1,0,0,.42h9.419a.21.21,0,0,0,0-.42Z" transform="translate(-67.668 -168.547)" fill="#707070" stroke="#707070" stroke-width="0.5"/>
    <path id="Path_11305" data-name="Path 11305" d="M54.411,24.423c0-1.022-.591-1.571-1.688-1.571H39.745c-1.349,0-2.7,0-4.047,0-.221,0-.377.049-.378.286q0,1.3,0,2.605c0,.152.064.28.241.279.2,0,.239-.139.239-.3,0-.708,0-1.416,0-2.125v-.281H51.838a1.851,1.851,0,0,0-.392,1.434q.006,6.4,0,12.8,0,1.759,0,3.516a1.113,1.113,0,0,1-.681,1.067,1.235,1.235,0,0,1-1.8-1.112q0-6.438,0-12.875a1.612,1.612,0,0,0-1.78-1.682q-7.582-.006-15.163,0a2.56,2.56,0,0,0-1.562.462,2.249,2.249,0,0,0-.937,1.948q.01,7.108,0,14.216v.338H26.78v1.947a2,2,0,0,0,2.233,1.481c5.162-.028,10.325-.012,15.487-.012a1.452,1.452,0,0,0,1.6-1.5c0-.767,0-1.535,0-2.3v-.286h.332c1.2,0,2.392,0,3.589,0a2.553,2.553,0,0,0,.588-.052A1.62,1.62,0,0,0,51.927,41q0-7.222,0-14.444v-.314c.732,0,1.432,0,2.131,0,.253,0,.358-.094.355-.331C54.4,25.418,54.411,24.921,54.411,24.423ZM43.095,46.39q-7.015,0-14.03,0a3.681,3.681,0,0,1-.854-.065,1.2,1.2,0,0,1-.946-1.131c-.016-.429,0-.858,0-1.306H42.849c.073.858-.211,1.763.61,2.5Zm2.54-18.063q.006,8.422,0,16.843a1.861,1.861,0,0,1-.048.526,1.077,1.077,0,0,1-1.708.434,1.18,1.18,0,0,1-.534-.951c-.011-.455,0-.91-.007-1.366,0-.342-.055-.394-.424-.394H34.229c-1.035,0-2.069,0-3.1,0h-.947c-.152-.014-.205-.079-.2-.263q.016-7.17.019-14.34A1.843,1.843,0,0,1,32.05,26.9h14.1A1.785,1.785,0,0,0,45.635,28.327Zm.471,13.965V42.05q0-6.954,0-13.909a1.138,1.138,0,0,1,.868-1.2,1.175,1.175,0,0,1,1.494.908,3.07,3.07,0,0,1,.025.428q0,6.3,0,12.594a1.825,1.825,0,0,0,.528,1.416ZM53.93,25.775H51.937c0-.546-.029-1.086.008-1.621a1,1,0,0,1,1.98.058C53.944,24.726,53.93,25.24,53.93,25.775Z" transform="translate(0 0)" fill="#707070" stroke="#707070" stroke-width="0.5"/>
  </g>
</svg>
