<svg id="home_select" data-name="home select" xmlns="http://www.w3.org/2000/svg" width="24.617" height="24.623" viewBox="0 0 24.617 24.623">
  <path id="Path_120" data-name="Path 120" d="M329.114,187.947h3.969a2.561,2.561,0,0,0,2.554-2.555V177.8h.5a2.165,2.165,0,0,0,1.564-3.66l-.034-.034-10.146-10.148a2.166,2.166,0,0,0-3.057,0l0,0L314.318,174.1a2.165,2.165,0,0,0,1.432,3.7h.59v7.591a2.563,2.563,0,0,0,2.555,2.555h3.974a.6.6,0,0,0,.6-.6v-5.848a1.352,1.352,0,0,1,1.349-1.348h2.341a1.349,1.349,0,0,1,1.347,1.348v5.854A.606.606,0,0,0,329.114,187.947Zm-1.953-9.013H324.82a2.564,2.564,0,0,0-2.556,2.555v5.25H318.9a1.352,1.352,0,0,1-1.348-1.347V177.2a.6.6,0,0,0-.6-.6h-1.118a.955.955,0,0,1-.661-1.634l10.145-10.15a.955.955,0,0,1,1.314-.037l.077.073,10.106,10.107a.963.963,0,0,1,.082,1.259l.006,0-.084.093a.961.961,0,0,1-.676.281h-1.1a.606.606,0,0,0-.6.6v8.195a1.351,1.351,0,0,1-1.347,1.347h-3.37v-5.25A2.563,2.563,0,0,0,327.161,178.934Z" transform="translate(-313.682 -163.324)" fill="#707070"/>
</svg>
