<svg xmlns="http://www.w3.org/2000/svg" width="24.723" height="24.723" viewBox="0 0 24.723 24.723">
  <g id="settings" transform="translate(0 0)">
    <path id="Path_11314" data-name="Path 11314" d="M139.519,133.609a5.91,5.91,0,1,0,5.91,5.91A5.917,5.917,0,0,0,139.519,133.609Zm0,10.342a4.432,4.432,0,1,1,4.432-4.432A4.438,4.438,0,0,1,139.519,143.951Zm0,0" transform="translate(-127.157 -127.157)" fill="#707070"/>
    <path id="Path_11315" data-name="Path 11315" d="M24.142,9.546l-1.9-.413a10.342,10.342,0,0,0-.612-1.475l1.052-1.636a.739.739,0,0,0-.1-.922l-2.96-2.96a.739.739,0,0,0-.922-.1L17.064,3.093a10.341,10.341,0,0,0-1.475-.612l-.413-1.9A.739.739,0,0,0,14.455,0H10.268a.739.739,0,0,0-.722.582l-.413,1.9a10.341,10.341,0,0,0-1.475.612L6.022,2.041a.739.739,0,0,0-.922.1L2.14,5.1a.739.739,0,0,0-.1.922L3.093,7.659a10.342,10.342,0,0,0-.612,1.475l-1.9.413A.739.739,0,0,0,0,10.268v4.186a.739.739,0,0,0,.582.722l1.9.413a10.341,10.341,0,0,0,.612,1.475L2.041,18.7a.739.739,0,0,0,.1.922l2.96,2.96a.739.739,0,0,0,.922.1L7.659,21.63a10.342,10.342,0,0,0,1.475.612l.413,1.9a.739.739,0,0,0,.722.582h4.186a.739.739,0,0,0,.722-.582l.413-1.9a10.341,10.341,0,0,0,1.475-.612L18.7,22.682a.739.739,0,0,0,.922-.1l2.96-2.96a.739.739,0,0,0,.1-.922L21.63,17.064a10.342,10.342,0,0,0,.612-1.475l1.9-.413a.739.739,0,0,0,.582-.722V10.268A.739.739,0,0,0,24.142,9.546Zm-.9,4.313-1.742.379a.739.739,0,0,0-.555.523,8.864,8.864,0,0,1-.818,1.974.739.739,0,0,0,.022.763l.965,1.5L19,21.117l-1.5-.965a.738.738,0,0,0-.762-.022,8.869,8.869,0,0,1-1.974.818.739.739,0,0,0-.523.555l-.379,1.742h-3L10.485,21.5a.739.739,0,0,0-.523-.555,8.864,8.864,0,0,1-1.974-.818.739.739,0,0,0-.763.022l-1.5.965L3.606,19l.965-1.5a.739.739,0,0,0,.022-.763,8.873,8.873,0,0,1-.819-1.974.739.739,0,0,0-.555-.523l-1.743-.379v-3l1.742-.379a.739.739,0,0,0,.555-.523,8.864,8.864,0,0,1,.818-1.974.739.739,0,0,0-.022-.763l-.965-1.5L5.724,3.606l1.5.965a.738.738,0,0,0,.762.022,8.869,8.869,0,0,1,1.974-.818.739.739,0,0,0,.523-.555l.379-1.742h3l.379,1.742a.739.739,0,0,0,.523.555,8.864,8.864,0,0,1,1.974.818.739.739,0,0,0,.763-.022L19,3.606l2.118,2.118-.965,1.5a.739.739,0,0,0-.022.763,8.864,8.864,0,0,1,.819,1.974.739.739,0,0,0,.555.523l1.743.379Zm0,0" fill="#707070"/>
  </g>
</svg>
