<svg xmlns="http://www.w3.org/2000/svg" width="27.332" height="22.397" viewBox="0 0 27.332 22.397">
  <g id="wallet" transform="translate(0 -39)">
    <g id="Group_1023" data-name="Group 1023" transform="translate(0 39)">
      <g id="Group_1022" data-name="Group 1022" transform="translate(0 0)">
        <path id="Path_11320" data-name="Path 11320" d="M24.713,39H5.587a2.625,2.625,0,0,0-2.613,2.626v.032H2.619A2.618,2.618,0,0,0,0,44.264V58.772A2.634,2.634,0,0,0,2.619,61.4H21.746a2.625,2.625,0,0,0,2.613-2.626V58.74h.354a2.618,2.618,0,0,0,2.619-2.607V41.626A2.63,2.63,0,0,0,24.713,39ZM21.746,60.132H2.619a1.369,1.369,0,0,1-1.354-1.36V44.264a1.353,1.353,0,0,1,1.354-1.341H21.746a1.343,1.343,0,0,1,1.348,1.341v3.619a1.558,1.558,0,0,1-.335.038H19.107a3.6,3.6,0,0,0,0,7.206h3.644c.114-.006.228-.019.335-.032l.006,3.676A1.36,1.36,0,0,1,21.746,60.132Zm4.321-4a1.353,1.353,0,0,1-1.354,1.341h-.354V54.64a3.458,3.458,0,0,0,.728-.664l.981-1.265Zm-1.98-2.923a1.7,1.7,0,0,1-1.329.658H19.107a2.341,2.341,0,0,1,0-4.682h3.644a2.886,2.886,0,0,0,1.259-.285,2.942,2.942,0,0,0,1.069-.86l.981-1.265.006,3.866Zm1.98-8.5-1.708,2.2V44.264a2.608,2.608,0,0,0-2.613-2.607H4.239v-.032a1.36,1.36,0,0,1,1.348-1.36H24.713a1.369,1.369,0,0,1,1.354,1.36v3.081Z" transform="translate(0 -39)" fill="#818181"/>
      </g>
    </g>
    <g id="Group_1025" data-name="Group 1025" transform="translate(18.373 50.895)">
      <g id="Group_1024" data-name="Group 1024">
        <path id="Path_11321" data-name="Path 11321" d="M292.551,227h-1.518a.633.633,0,1,0,0,1.265h1.518a.633.633,0,1,0,0-1.265Z" transform="translate(-290.4 -227)" fill="#818181"/>
      </g>
    </g>
  </g>
</svg>
